<svg version="1.2" xmlns="http://www.w3.org/2000/svg" viewBox="0 0 30 30" width="30" height="30">
	<title></title>
	<style>
		.s0 { fill: #55acee } 
		.s1 { fill: #f1f2f2 } 
	</style>
	<g id="Layer">
		<path id="Layer" class="s0" d="m15 29.9c-8.3 0-15-6.7-15-14.9 0-8.3 6.7-15 15-15 8.2 0 14.9 6.7 14.9 15 0 8.2-6.7 14.9-14.9 14.9z"/>
		<path id="Layer" fill-rule="evenodd" class="s1" d="m6.5 9.5c0-1.6 1.4-3 3-3h10.9c1.6 0 3 1.4 3 3v10.9c0 1.6-1.4 3-3 3h-10.9c-1.6 0-3-1.4-3-3zm12.2-1.1v2.8h2.8v-2.8h-0.3c0 0-2.5 0-2.5 0zm-6.6 6.5c0 1.6 1.3 2.8 2.9 2.8 1.5 0 2.8-1.2 2.8-2.8 0-0.6-0.5-2.8-2.8-2.8-2.4 0-2.9 2.2-2.9 2.8zm9.4 5v-6.9h-2.3c0.2 0.6 0.4 1.3 0.4 1.9 0 2.5-2.1 4.6-4.6 4.6-2.6 0-4.6-2.1-4.6-4.6 0-0.6 0.1-1.3 0.3-1.9h-2.3v6.9c0 0.9 0.7 1.6 1.6 1.6h9.9c0.9 0 1.6-0.7 1.6-1.6z"/>
	</g>
	<g id="Layer">
	</g>
	<g id="Layer">
	</g>
	<g id="Layer">
	</g>
	<g id="Layer">
	</g>
	<g id="Layer">
	</g>
	<g id="Layer">
	</g>
	<g id="Layer">
	</g>
	<g id="Layer">
	</g>
	<g id="Layer">
	</g>
	<g id="Layer">
	</g>
	<g id="Layer">
	</g>
	<g id="Layer">
	</g>
	<g id="Layer">
	</g>
	<g id="Layer">
	</g>
	<g id="Layer">
	</g>
</svg>