<svg version="1.2" xmlns="http://www.w3.org/2000/svg" viewBox="0 0 30 30" width="30" height="30">
	<title></title>
	<style>
		.s0 { fill: #40b3e0 } 
		.s1 { fill: #ffffff } 
		.s2 { fill: #d2e5f1 } 
		.s3 { fill: #b5cfe4 } 
	</style>
	<g id="Layer">
		<path id="Layer" class="s0" d="m15 30c-8.3 0-15-6.7-15-15 0-8.3 6.7-15 15-15 8.3 0 15 6.7 15 15 0 8.3-6.7 15-15 15z"/>
		<path id="Layer" class="s1" d="m22.3 8.6l-2.7 13.5c0 0-0.4 1-1.4 0.5l-6.2-4.7-2.2-1.1-3.8-1.3c0 0-0.6-0.2-0.6-0.6-0.1-0.5 0.6-0.7 0.6-0.7l15.1-5.9c0 0 1.2-0.6 1.2 0.3z"/>
		<path id="Layer" class="s2" d="m11.6 22c0 0-0.2 0-0.4-0.7-0.3-0.8-1.4-4.5-1.4-4.5l9.1-5.8c0 0 0.5-0.3 0.5 0 0 0 0.1 0.1-0.2 0.3-0.3 0.3-7.1 6.5-7.1 6.5"/>
		<path id="Layer" class="s3" d="m14.4 19.7l-2.4 2.2c0 0-0.2 0.2-0.4 0.1l0.4-4.2"/>
	</g>
</svg>