<svg version="1.2" xmlns="http://www.w3.org/2000/svg" viewBox="0 0 30 30" width="30" height="30">
	<title></title>
	<style>
		.s0 { fill: #55acee } 
		.s1 { fill: #f1f2f2 } 
	</style>
	<g id="Layer">
		<path id="Layer" class="s0" d="m14.9 29.8c-8.2 0-14.9-6.7-14.9-14.9 0-8.2 6.7-14.9 14.9-14.9 8.2 0 14.9 6.7 14.9 14.9 0 8.2-6.7 14.9-14.9 14.9z"/>
		<g id="Layer">
			<path id="Layer" class="s1" d="m22.2 12.5q0 0.3 0 0.5c0 4.7-3.5 10.1-10.1 10.1-2 0-3.9-0.6-5.4-1.6q0.4 0.1 0.8 0.1c1.7 0 3.2-0.6 4.4-1.5-1.5-0.1-2.8-1.1-3.3-2.5q0.3 0.1 0.7 0.1 0.5 0 0.9-0.2c-1.6-0.3-2.8-1.7-2.8-3.5q0 0 0 0 0.7 0.4 1.6 0.4c-1-0.6-1.6-1.7-1.6-2.9 0-0.7 0.2-1.3 0.5-1.8 1.7 2.1 4.4 3.6 7.3 3.7q-0.1-0.4-0.1-0.8c0-2 1.6-3.6 3.6-3.6 1 0 1.9 0.5 2.6 1.2q1.2-0.3 2.2-0.9c-0.2 0.8-0.8 1.5-1.5 2q1.1-0.2 2-0.6-0.7 1.1-1.8 1.8z"/>
		</g>
	</g>
	<g id="Layer">
	</g>
	<g id="Layer">
	</g>
	<g id="Layer">
	</g>
	<g id="Layer">
	</g>
	<g id="Layer">
	</g>
	<g id="Layer">
	</g>
	<g id="Layer">
	</g>
	<g id="Layer">
	</g>
	<g id="Layer">
	</g>
	<g id="Layer">
	</g>
	<g id="Layer">
	</g>
	<g id="Layer">
	</g>
	<g id="Layer">
	</g>
	<g id="Layer">
	</g>
	<g id="Layer">
	</g>
</svg>