<svg version="1.2" xmlns="http://www.w3.org/2000/svg" viewBox="0 0 150 22" width="150" height="22">
	<title></title>
	<style>
		.s0 { fill: #ff6000 } 
		.s1 { fill: #00c9e6 } 
	</style>
	<path id="Layer" class="s0" d="m4.5 10.2l-3.7-0.1c-0.2 0-0.5-0.1-0.5-0.4 0-0.2 0.3-0.4 0.5-0.4h8.1c0.2 0 0.4 0.2 0.4 0.4 0 0.3-0.2 0.4-0.4 0.4h-3.6v11c0 0.2-0.2 0.4-0.5 0.4-0.2 0-0.4-0.2-0.4-0.4v-11z"/>
	<path id="Layer" fill-rule="evenodd" class="s0" d="m4.8 21.9c-0.4 0-0.8-0.4-0.8-0.8v-10.6h-3.2c-0.5 0-0.8-0.3-0.8-0.8 0-0.4 0.3-0.8 0.8-0.8h8.1c0.4 0 0.8 0.4 0.8 0.8 0 0.5-0.4 0.8-0.8 0.8h-3.2v10.6c0 0.4-0.4 0.8-0.9 0.8zm13.8-3.1c0-1-0.5-1.4-1.1-1.9-0.4-0.3-1.1-0.6-1.3-0.6 0 0-2.9 0-3 0v4.8c0 0.2-0.3 0.4-0.5 0.4-0.2 0-0.5-0.2-0.5-0.4v-11.4c0-0.2 0.3-0.4 0.5-0.4h3.5c1.8 0 3.3 1.6 3.3 3.4 0 1.4-0.8 2.7-2 3.3h0.3c0.8 0.4 1.6 1.4 1.6 2.8 0 0.7 0 1.1 0.1 1.3 0 0.3 0.1 0.4 0.1 0.4 0.2-0.1 0.5 0 0.5 0.2 0.1 0.3 0 0.5-0.3 0.6 0 0-0.1 0-0.2 0-0.2 0-0.6-0.1-0.8-0.6-0.1-0.3-0.2-0.9-0.2-1.9zm-2.4-8.6h-3v5.2h3c1.5 0 2.5-1.2 2.5-2.5 0-1.6-1.2-2.7-2.5-2.7zm-15.4-0.5h4v11.4 0.1-0.1-11.4h4.1q0.1 0 0.1 0h-0.1z"/>
	<path id="Layer" fill-rule="evenodd" class="s0" d="m12.7 21.9c-0.5 0-0.8-0.4-0.8-0.8v-11.4c0-0.4 0.3-0.8 0.8-0.8h3.5c2 0 3.8 1.8 3.8 4 0 1.2-0.6 2.4-1.7 3.1 0.6 0.4 1.4 1.4 1.4 2.8 0 0.8 0.1 1.1 0.3 1.3 0.2 0 0.4 0.3 0.5 0.5v0.1c0.2 0.5-0.1 0.8-0.4 1.1-0.1 0-0.3 0-0.4 0h-0.1c-0.3 0-0.8-0.3-1-0.8-0.3-0.5-0.4-1.2-0.4-2.2 0-0.6-0.3-1.1-0.9-1.5-0.5-0.4-1-0.6-1.1-0.6h-2.6v4.4c-0.1 0.4-0.4 0.8-0.9 0.8zm0-12.2v0.1l0.8 1.5v3.8h2.1l0.4 0.8q0.2 0 0.3 0.1c0.2 0 0.6 0.1 0.9 0.3l-0.5-0.4 0.7-0.3c1.1-0.4 1.8-1.6 1.8-2.7 0-0.7-0.3-1.3-0.6-1.8-0.5-0.8-1.4-1.4-2.4-1.4zm4.8 6.7q0.2 0.1 0.4 0.3-0.1-0.1-0.2-0.1-0.1-0.1-0.2-0.2zm1.4 2.4c0 0.9 0.1 1.5 0.2 1.8 0.2 0.2 0.5 0.4 0.5 0.4h0.1q0 0 0-0.2h-0.2l-0.2-0.1c0 0-0.1-0.1-0.2-0.4q-0.2-0.5-0.2-1.5c0-1.1-0.6-1.8-1-2.1q1 0.9 1 2.1zm-1.4-2.5h-0.2q0.1 0.1 0.2 0.1zm-0.2 0q0 0-0.1 0h0.1zm19.1 5q-0.1 0-0.1 0l-4.8-11.3c0-0.2 0.1-0.5 0.3-0.5 0.2-0.1 0.4 0 0.5 0.1l4.3 10.4 4.4-10.4c0.1-0.1 0.3-0.2 0.6-0.1 0.2 0 0.3 0.3 0.2 0.5l-4.7 11.2c0 0.1-0.1 0.3-0.3 0.3q-0.1 0-0.1 0-0.1 0-0.1 0-0.1 0 0 0-0.2 0-0.2-0.2z"/>
	<path id="Layer" fill-rule="evenodd" class="s0" d="m36.8 21.9q-0.1 0-0.2 0-0.1 0-0.1 0-0.3-0.1-0.4-0.4 0 0 0-0.1h-0.1l-4.6-11.3c-0.2-0.4 0-0.8 0.3-1.1q0.3-0.1 0.4-0.1c0.3 0 0.7 0.2 0.8 0.6l3.9 9.5 4-9.5c0.2-0.4 0.4-0.6 0.7-0.6q0.2 0 0.4 0.1c0.3 0.3 0.6 0.7 0.4 1.1l-4.7 11.2c0 0.2-0.2 0.5-0.4 0.6-0.1 0-0.3 0-0.4 0zm0-0.8l4.7-11.3q0-0.1 0-0.1h-0.1l-4.6 11.4-4.7-11.4q-0.1 0-0.1 0.1l4.6 11.2h0.1zm7.7-11.4c0-0.2 0.3-0.5 0.5-0.5h6.2c0.2 0 0.4 0.3 0.4 0.5q0 0.4-0.4 0.4h-5.9v4.8h5.1c0.2 0 0.5 0.3 0.5 0.5 0 0.2-0.3 0.4-0.5 0.4h-5.1v4.8h5.9c0.2 0 0.4 0.2 0.4 0.5 0 0.2-0.2 0.4-0.4 0.4h-6.2c-0.2 0-0.5-0.2-0.5-0.4z"/>
	<path id="Layer" fill-rule="evenodd" class="s0" d="m51.2 21.9h-6.3c-0.4 0-0.7-0.4-0.7-0.8v-11.4c0-0.4 0.3-0.8 0.8-0.8h6.2c0.5 0 0.8 0.4 0.8 0.8 0 0.5-0.3 0.8-0.8 0.8h-5.4v4.1h4.6c0.5 0 0.8 0.3 0.8 0.8 0 0.5-0.3 0.8-0.8 0.8h-4.6v4.1h5.4c0.5 0 0.8 0.4 0.8 0.9 0 0.3-0.3 0.7-0.8 0.7zm-6.2-0.7h6.2q0 0 0-0.1h-6.2zm10.3 0.3c-0.3 0-0.5-0.2-0.5-0.4v-11.4c0-0.2 0.2-0.5 0.5-0.5 0.2 0 0.3 0.3 0.3 0.5v11h5.8c0.2 0 0.4 0.2 0.4 0.5 0 0.2-0.2 0.3-0.4 0.3z"/>
	<path id="Layer" fill-rule="evenodd" class="s0" d="m61.5 21.9h-6.2c-0.5 0-0.8-0.4-0.8-0.8v-11.4c0-0.4 0.3-0.8 0.8-0.8 0.4 0 0.8 0.4 0.8 0.8v10.6h5.4c0.5 0 0.8 0.3 0.8 0.8 0 0.4-0.3 0.8-0.8 0.8zm-6.2-0.7h6.2q0-0.1 0-0.1h-6.2z"/>
	<path id="Layer" fill-rule="evenodd" class="s1" d="m76.3 21.5c-0.1-0.1-0.4-0.2-0.4-0.4v-11.4c0-0.2 0.3-0.4 0.5-0.4h2.3c3.3 0 6 2.7 6 6.1 0 3.4-2.7 6.1-6 6.1zm2.2-0.8c2.9 0 5.3-2.4 5.3-5.3 0-2.9-2.4-5.2-5.3-5.3h-1.9v10.5z"/>
	<path id="Layer" fill-rule="evenodd" class="s1" d="m78.6 21.9h-2.3c-0.5 0-0.8-0.4-0.8-0.8v-11.4c0-0.4 0.4-0.8 0.8-0.8h2.3c3.6 0 6.4 2.9 6.4 6.5 0 3.6-2.8 6.5-6.4 6.5zm-2.3-0.7h2.3c3 0 5.5-2.5 5.6-5.6q0-0.1 0-0.1 0 0 0 0 0-0.1 0-0.1c0-3.1-2.5-5.7-5.6-5.7h-2.3zm7.9-5.7q0 0.1 0 0.1c-0.1 3.1-2.5 5.5-5.6 5.5h-2.2v-11.2h2.2c3.1 0 5.6 2.5 5.6 5.6zm-7.1 4.9h1.5c2.6 0 4.7-2.2 4.7-4.8 0-2.8-2.1-4.9-4.7-5h-1.5zm13.7 1l-4.7-11.3c0-0.3 0.1-0.5 0.2-0.6 0.2-0.1 0.5 0 0.6 0.2l4.3 10.4 8.1-19.3c0.2-0.2 0.4-0.3 0.6-0.2 0.3 0.1 0.4 0.3 0.3 0.6l-8.6 20.1c0 0.1-0.1 0.2-0.2 0.3q-0.1 0-0.1 0-0.1 0-0.3 0-0.1 0-0.2-0.2z"/>
	<path id="Layer" fill-rule="evenodd" class="s1" d="m91.3 21.9q-0.1 0-0.4 0 0 0-0.1 0-0.1-0.1-0.2-0.4c0 0-0.1 0-0.1-0.1l-4.7-11.3c-0.2-0.4 0-0.8 0.4-1.1q0.2-0.1 0.3-0.1c0.4 0 0.7 0.2 0.8 0.6l4 9.5 7.7-18.5c0.1-0.3 0.5-0.5 0.8-0.5q0.1 0 0.4 0.1 0.2 0.1 0.3 0.5 0.1 0.2 0 0.6l-8.4 20.1c-0.1 0.2-0.3 0.5-0.5 0.6q-0.2 0-0.3 0zm-0.1-0.8h0.1l-4.8-11.4h-0.1q0 0 0 0.1l4.6 11.2zm0.2 0l2.5-6.1-2.5 5.9zm8.5-20.2h-0.1l-5.9 14.2z"/>
	<g id="Layer">
		<path id="Layer" class="s1" d="m99.1 9.7c0-0.2 0.2-0.4 0.5-0.4 0.2 0 0.3 0.2 0.3 0.4v11.4c0 0.2-0.1 0.4-0.3 0.4-0.3 0-0.5-0.2-0.5-0.4z"/>
		<path id="Layer" fill-rule="evenodd" class="s1" d="m99.6 21.9c-0.5 0-0.8-0.4-0.8-0.8v-11.4c0-0.4 0.3-0.8 0.8-0.8 0.4 0 0.8 0.4 0.8 0.8v11.4c0 0.4-0.4 0.8-0.8 0.8zm-0.1-0.8l0.1 0.1q0-0.1 0-0.1v-11.4z"/>
	</g>
	<g id="Layer">
		<path id="Layer" class="s1" d="m103.4 19.2c0.1-0.1 0.3-0.2 0.6-0.1 0.9 0.8 2.4 1.6 3.9 1.6 1 0 2.1-0.3 2.6-0.8 0.7-0.4 1.1-1.1 1.1-1.8 0-0.7-0.3-1.2-0.9-1.7q-1.1-0.7-2.8-1h-0.1c-1.1-0.1-2.1-0.5-2.8-1-0.8-0.5-1.3-1.2-1.3-2.1 0-1 0.5-1.8 1.3-2.3 0.7-0.6 1.7-1 2.9-1 1.6 0 2.8 0.8 3.8 1.5 0.1 0.2 0.2 0.4 0.1 0.5-0.1 0.2-0.3 0.2-0.6 0.1-0.9-0.6-1.9-1.3-3.3-1.3-0.9 0-1.9 0.4-2.4 0.7-0.6 0.5-1 1.1-1 1.8 0 0.6 0.3 1 0.8 1.5 0.7 0.3 1.7 0.7 2.7 0.9q1.9 0.4 3.1 1c0.8 0.6 1.4 1.4 1.4 2.4 0 1-0.6 1.8-1.4 2.5-0.8 0.6-1.9 0.9-3.1 0.9-1.8 0-3.5-0.9-4.5-1.7-0.2-0.1-0.2-0.3-0.1-0.6z"/>
		<path id="Layer" class="s1" d="m107.9 21.9c-2.1 0-3.8-1.1-4.6-1.9h-0.1c-0.3-0.2-0.4-0.7-0.2-1 0.3-0.2 0.5-0.2 0.7-0.2q0.3 0 0.5 0.1c0.5 0.3 2 1.5 3.7 1.5 0.9 0 1.8-0.3 2.4-0.7 0.6-0.5 0.9-1.1 0.9-1.5 0-0.6-0.2-1.1-0.8-1.4-0.6-0.4-1.5-0.7-2.6-0.9q-2-0.4-3-1.2c-1-0.6-1.5-1.4-1.5-2.4 0-1.1 0.5-2 1.5-2.6 0.8-0.7 1.9-1 3.1-1 1.7 0 3 0.9 3.9 1.5 0.4 0.2 0.5 0.7 0.2 1-0.1 0.3-0.3 0.4-0.5 0.4-0.3 0-0.4 0-0.5-0.1-0.9-0.6-1.8-1.2-3.1-1.2-0.8 0-1.6 0.2-2.3 0.6q-0.7 0.7-0.7 1.4c0 0.4 0.1 0.8 0.7 1.1q0.8 0.6 2.4 1c1.4 0.2 2.4 0.5 3.2 1.1 1.1 0.6 1.5 1.6 1.5 2.7 0 1-0.4 1.9-1.5 2.8-0.9 0.5-2 0.9-3.3 1z"/>
	</g>
	<g id="Layer">
		<path id="Layer" fill-rule="evenodd" class="s1" d="m120.8 21.5c-3.3 0-5.9-2.8-5.9-6.2 0-3.5 2.6-6.3 5.9-6.3 3.2 0 5.8 2.8 5.8 6.3 0 3.4-2.6 6.2-5.8 6.2zm5-6.2c0-2.9-2.2-5.3-5-5.3-2.7 0-5 2.4-5 5.3 0 3 2.3 5.4 5 5.4 2.8 0 5-2.4 5-5.4z"/>
		<path id="Layer" fill-rule="evenodd" class="s1" d="m120.8 21.9c-3.4 0-6.2-3-6.2-6.6 0-3.7 2.8-6.6 6.2-6.6 3.5 0 6.2 2.9 6.2 6.6 0 3.6-2.7 6.6-6.2 6.6zm5.4-6.6c0-3.2-2.4-5.8-5.4-5.8-3 0-5.4 2.6-5.4 5.8 0 3.3 2.4 5.9 5.4 5.9 3 0 5.4-2.6 5.4-5.9zm-5.5 5.8c-2.9 0-5.3-2.6-5.3-5.8 0-3.1 2.4-5.7 5.3-5.7 3 0 5.4 2.6 5.4 5.7 0 3.2-2.4 5.8-5.4 5.8zm4.6-5.8c0-2.7-2-4.9-4.5-4.9-2.6 0-4.6 2.2-4.6 4.9 0 2.8 2 5 4.6 5 2.5 0 4.5-2.2 4.5-5z"/>
	</g>
	<g id="Layer">
		<path id="Layer" fill-rule="evenodd" class="s1" d="m136.2 18.8c0-1-0.5-1.5-1-1.9-0.5-0.3-1.1-0.6-1.4-0.6-0.1-0.1-0.1-0.1-0.1-0.1h-2.9v4.9c0 0.2-0.2 0.4-0.4 0.4-0.2 0-0.5-0.2-0.5-0.4v-11.4c0-0.2 0.3-0.4 0.4-0.4h3.4c2 0 3.5 1.6 3.5 3.4 0 1.4-0.8 2.7-2 3.3h0.1c0.9 0.4 1.7 1.4 1.7 2.8 0 0.7 0.1 1.1 0.2 1.3 0 0.3 0.1 0.4 0.1 0.4 0.2-0.1 0.5 0 0.5 0.2 0.1 0.3 0 0.5-0.3 0.6-0.1 0-0.1 0-0.2 0-0.2 0-0.7-0.1-0.8-0.6-0.1-0.3-0.3-0.9-0.3-1.9zm-2.4-8.6h-3v5.2h3c1.4 0 2.6-1.2 2.6-2.5 0-1.6-1.2-2.7-2.6-2.7z"/>
		<path id="Layer" fill-rule="evenodd" class="s1" d="m130.4 21.9c-0.5 0-0.8-0.4-0.8-0.8v-11.4c0-0.4 0.3-0.8 0.7-0.8h3.5c2.1 0 3.9 1.8 3.9 4 0 1.2-0.7 2.4-1.7 3.1 0.6 0.4 1.4 1.4 1.4 2.8 0 0.8 0.1 1.1 0.1 1.3q0 0 0.2 0c0.2 0 0.4 0.3 0.5 0.5v0.1c0.1 0.5-0.1 0.8-0.4 1.1-0.1 0-0.3 0-0.4 0h-0.1c-0.3 0-0.8-0.3-1-0.8-0.4-0.5-0.5-1.2-0.5-2.2 0-0.6-0.2-1.1-0.8-1.5-0.5-0.4-1-0.5-1.2-0.6h-2.6v4.4c0 0.4-0.4 0.8-0.8 0.8zm3.6-5.9c0.1 0 0.5 0.1 1 0.3l-0.6-0.4 0.6-0.3q0.1 0 0.1 0c1-0.5 1.7-1.6 1.7-2.7q0-0.2 0-0.2c0-1-0.5-1.9-1.3-2.5-0.4-0.3-0.9-0.4-1.5-0.5q-0.1 0-0.2 0h-0.1v0.8h-2.5v4.6h2.5v0.8q0.1 0 0.3 0.1zm1.1 0.4q0 0 0.1 0 0.2 0.1 0.4 0.3-0.1-0.1-0.1-0.1-0.2-0.1-0.4-0.2zm1.5 2.4c0 0.9 0 1.5 0.2 1.8 0.2 0.2 0.4 0.4 0.5 0.4h0.1q0 0 0-0.2h-0.2l-0.1-0.1c0 0-0.3-0.1-0.3-0.4q-0.2-0.5-0.2-1.5c0-1.1-0.5-1.8-1-2.1q1 0.9 1 2.1zm-1.5-2.5h-0.1q0.1 0 0.1 0.1 0-0.1 0-0.1zm-0.1 0q0 0 0 0z"/>
	</g>
	<g id="Layer">
		<path id="Layer" class="s1" d="m140.4 19.2c0.1-0.1 0.4-0.2 0.6-0.1 0.9 0.8 2.4 1.6 3.9 1.6 1.2 0 2.1-0.3 2.7-0.8 0.7-0.4 1-1.1 1-1.8 0-0.7-0.2-1.2-0.9-1.7q-1-0.7-2.8-1h-0.1c-1-0.1-2.1-0.5-2.8-1-0.8-0.5-1.2-1.2-1.2-2.1 0-1 0.4-1.8 1.2-2.3 0.7-0.6 1.8-1 2.9-1 1.6 0 2.8 0.8 3.7 1.5 0.2 0.2 0.2 0.4 0.1 0.5-0.1 0.2-0.3 0.2-0.4 0.1-1-0.6-2.1-1.3-3.4-1.3-0.9 0-1.8 0.4-2.4 0.7-0.6 0.5-0.9 1.1-0.9 1.8 0 0.6 0.2 1 0.8 1.5 0.6 0.3 1.5 0.7 2.6 0.9 1.2 0.2 2.3 0.6 3.2 1 0.8 0.6 1.3 1.4 1.3 2.4 0 1-0.5 1.8-1.3 2.5-0.9 0.6-2 0.9-3.2 0.9-1.9 0-3.4-0.9-4.5-1.7-0.2-0.1-0.2-0.3-0.1-0.6z"/>
		<path id="Layer" class="s1" d="m144.9 21.9c-2.1 0-3.8-1.1-4.6-1.9h-0.1c-0.2-0.2-0.4-0.7-0.1-1 0.2-0.2 0.4-0.2 0.7-0.2q0.2 0 0.4 0.1c0.5 0.3 2 1.5 3.7 1.5 0.9 0 1.9-0.3 2.4-0.7 0.6-0.5 1-1.1 1-1.5 0-0.6-0.3-1.1-0.8-1.4-0.6-0.4-1.5-0.7-2.7-0.9q-2-0.4-3-1.2c-0.9-0.6-1.5-1.4-1.5-2.4 0-1.1 0.6-2 1.5-2.6 0.8-0.7 2-1 3.1-1 1.8 0 3 0.9 3.9 1.5 0.4 0.2 0.5 0.7 0.3 1-0.1 0.3-0.4 0.4-0.6 0.4-0.2 0-0.3 0-0.5-0.1-0.9-0.6-1.8-1.2-3.1-1.2-0.8 0-1.6 0.2-2.2 0.6-0.5 0.4-0.8 0.9-0.8 1.4 0 0.4 0.3 0.8 0.7 1.1q0.8 0.6 2.4 1h0.2c1.2 0.2 2.4 0.5 3.2 1.1 0.9 0.6 1.5 1.6 1.5 2.7 0 1-0.6 1.9-1.5 2.8q-1.6 0.8-3.5 1z"/>
	</g>
	<g id="Layer">
		<path id="Layer" class="s0" d="m27.5 9.5l4.7 11.3c0.1 0.3 0 0.5-0.2 0.6-0.3 0.1-0.5 0-0.6-0.2l-4.4-10.5-4.4 10.4c0 0.2-0.2 0.3-0.4 0.2-0.3 0-0.4-0.3-0.3-0.6l4.8-11.1c0-0.1 0.1-0.3 0.2-0.3q0.1 0 0.1 0 0.1 0 0.1 0 0.1 0 0.1 0 0.1 0 0.3 0.2z"/>
		<path id="Layer" fill-rule="evenodd" class="s0" d="m31.7 21.8c-0.3 0-0.5-0.3-0.7-0.5l-4-9.6-3.9 9.6c-0.1 0.2-0.5 0.5-0.7 0.5q-0.2 0-0.4-0.1c-0.4-0.2-0.7-0.6-0.4-1.1l4.6-11.1c0.1-0.4 0.2-0.6 0.5-0.6l0.1-0.1q0.1 0 0.2 0 0.1 0 0.3 0 0 0.1 0.2 0.1 0.2 0.1 0.2 0.4 0.1 0 0.1 0v0.1l4.7 11.2q0.2 0.4 0 0.7c-0.1 0.2-0.2 0.4-0.4 0.5q-0.1 0-0.4 0zm-4.7-12.1l4.7 11.3h0.1l-4.7-11.2v-0.1h-0.1l-4.7 11.3q0 0 0.1 0z"/>
	</g>
	<g id="Layer">
		<path id="Layer" class="s1" d="m68.7 9.5q0.1 0 0.1 0l4.7 11.3c0 0.3-0.1 0.5-0.2 0.6-0.3 0.1-0.5 0-0.6-0.2l-4.4-10.4-4.3 10.4c-0.1 0.2-0.3 0.3-0.5 0.2-0.3-0.1-0.4-0.3-0.3-0.6l4.8-11.2c0-0.1 0.1-0.3 0.2-0.3q0.1 0 0.1 0 0.1 0 0.1 0 0.1 0 0.1 0c0 0 0.2 0.1 0.2 0.2z"/>
		<path id="Layer" fill-rule="evenodd" class="s1" d="m73 21.8c-0.3 0-0.7-0.3-0.8-0.5l-3.9-9.6-4 9.6c-0.1 0.2-0.4 0.5-0.7 0.5q-0.1 0-0.4-0.1-0.2-0.2-0.3-0.4-0.2-0.3 0-0.7l4.6-11.1c0-0.4 0.2-0.6 0.5-0.6l0.1-0.1q0.1 0 0.2 0 0.1 0 0.2 0 0.2 0.1 0.2 0.1 0.2 0.1 0.3 0.4l0.1 0.1 4.6 11.2q0.1 0.4 0 0.7-0.1 0.2-0.3 0.4-0.2 0.1-0.4 0.1zm0-0.8h0.2l-4.7-11.2h-0.1l-0.1-0.1zm-4.7-11.2l-1.4 3.4 1.4-3.3zm-4.8 11.2h0.2l3.2-7.8z"/>
	</g>
</svg>